<?xml version="1.0" encoding="UTF-8" standalone="no"?>
<!-- Uploaded to: SVG Repo, www.svgrepo.com, Generator: SVG Repo Mixer Tools -->

<svg
   width="800px"
   height="800px"
   viewBox="0 0 15 15"
   fill="none"
   version="1.1"
   id="svg1"
   sodipodi:docname="counterClockDark.svg"
   inkscape:version="1.3.2 (091e20e, 2023-11-25, custom)"
   inkscape:export-filename="counterClockLight.png"
   inkscape:export-xdpi="45.62738"
   inkscape:export-ydpi="45.62738"
   xmlns:inkscape="http://www.inkscape.org/namespaces/inkscape"
   xmlns:sodipodi="http://sodipodi.sourceforge.net/DTD/sodipodi-0.dtd"
   xmlns:xlink="http://www.w3.org/1999/xlink"
   xmlns="http://www.w3.org/2000/svg"
   xmlns:svg="http://www.w3.org/2000/svg">
  <defs
     id="defs1">
    <linearGradient
       id="swatch3"
       inkscape:swatch="solid">
      <stop
         style="stop-color:#6125e8;stop-opacity:1;"
         offset="0"
         id="stop6" />
    </linearGradient>
    <linearGradient
       id="linearGradient1"
       inkscape:collect="always">
      <stop
         style="stop-color:#beadc2;stop-opacity:0.15835777;"
         offset="0"
         id="stop1" />
      <stop
         style="stop-color:#ba9ebf;stop-opacity:0.17741935;"
         offset="0.14585835"
         id="stop3" />
      <stop
         style="stop-color:#5d7860;stop-opacity:0.21407625;"
         offset="0.40596336"
         id="stop4" />
      <stop
         style="stop-color:#aab6a4;stop-opacity:0.18914956;"
         offset="0.7237395"
         id="stop5" />
      <stop
         style="stop-color:#abbdb2;stop-opacity:0.14222874;"
         offset="1"
         id="stop2" />
    </linearGradient>
    <linearGradient
       inkscape:collect="always"
       xlink:href="#linearGradient1"
       id="linearGradient2"
       x1="5.4867759"
       y1="5.922482"
       x2="9.4926825"
       y2="9.4733934"
       gradientUnits="userSpaceOnUse"
       gradientTransform="matrix(1.0749542,0,0,1.0749542,-0.56777808,-0.56215598)" />
    <linearGradient
       inkscape:collect="always"
       xlink:href="#swatch3"
       id="linearGradient6"
       x1="5.2321199"
       y1="7.499988"
       x2="9.695348"
       y2="7.499988"
       gradientUnits="userSpaceOnUse" />
  </defs>
  <sodipodi:namedview
     id="namedview1"
     pagecolor="#ffffff"
     bordercolor="#000000"
     borderopacity="0.25"
     inkscape:showpageshadow="2"
     inkscape:pageopacity="0.0"
     inkscape:pagecheckerboard="0"
     inkscape:deskcolor="#d1d1d1"
     showgrid="false"
     inkscape:zoom="2.8637825"
     inkscape:cx="417.45489"
     inkscape:cy="424.43866"
     inkscape:window-width="1920"
     inkscape:window-height="1009"
     inkscape:window-x="-8"
     inkscape:window-y="-8"
     inkscape:window-maximized="1"
     inkscape:current-layer="svg1" />
  <path
     fill-rule="evenodd"
     clip-rule="evenodd"
     d="m 7.5130133,6.095561 c -0.8959799,0 -1.1250781,0.1622107 -1.3137781,0.5148821 L 6.7189603,6.3602569 c 0.08024,-0.038626 0.1182288,0.2483023 0.1182288,0.3373566 0,0.089054 -0.1666458,0.3005193 -0.2538357,0.3186505 L 6.1513307,7.1923193 5.6483018,7.2107084 C 5.5593072,7.2139618 5.3405394,7.0082227 5.3296512,6.9198357 L 5.232429,6.1306178 C 5.221541,6.0422318 5.5013762,5.5457634 5.5904314,5.5457634 c 0.089054,0 0.3046295,-0.2926827 0.2719565,0.045128 L 5.7771396,6.4722866 C 6.0043431,6.0717842 6.529842,5.3554502 7.5508206,5.3554502 c 1.3101906,0 2.1445274,1.0756192 2.1445274,2.1445354 0,1.0689192 -0.8343368,2.1445402 -2.1445274,2.1445402 -0.6268615,0 -1.1487735,-0.2480584 -1.5203743,-0.6261398 C 5.8314874,8.8159307 5.7175876,8.5252602 5.611648,8.2678194 5.577751,8.1854749 5.3389836,7.6542525 5.4213131,7.6203592 5.5036595,7.5864628 5.7376296,7.4419887 6.0792417,7.4653937 6.3334898,7.6396123 6.3918778,7.7989708 6.482209,8.0624859 6.8024602,8.5692258 6.6976479,8.5698185 7.2854455,8.7656047 7.8240347,8.9450003 8.4127237,8.7364021 8.7183249,8.0117742 8.9351487,7.5178466 8.3382471,6.1327507 7.5130133,6.095561 Z M 7.465255,6.3049379 C 7.5296611,6.2185655 7.7284734,6.4455272 7.6531285,6.748595 7.5853026,7.0214185 7.5741121,6.9891908 7.4776967,7.4192299 7.6124471,7.8117356 7.9491604,7.8598496 8.0053529,8.0298309 8.2689507,8.8272088 7.9690475,8.5031149 7.7473081,8.5874684 7.2784847,7.689751 7.4794781,8.2057594 7.2993056,7.7187668 7.236854,7.5499647 7.2062483,7.434521 7.2062483,7.434521 l -0.02972,-0.7422203 z"
     fill="#000000"
     id="path1"
     inkscape:export-filename="counterClockLight.png"
     inkscape:export-xdpi="96"
     inkscape:export-ydpi="96"
     style="opacity:1;fill:url(#linearGradient2);stroke:url(#linearGradient6);stroke-width:0;stroke-dasharray:none"
     sodipodi:nodetypes="scssscssssscsssccsccssscscscsccc" />
</svg>
